<svg width="202" height="237" viewBox="0 0 202 237" fill="none" xmlns="http://www.w3.org/2000/svg">
<path d="M97.5451 100.677L87.4368 64.8386L77.3285 28.9999" stroke="#737575" stroke-width="6"/>
<rect x="4.21601" y="109.358" width="186.067" height="122.966" rx="8" transform="rotate(-3.18421 4.21601 109.358)" fill="white" stroke="#737575" stroke-width="8"/>
<ellipse cx="73.5799" cy="170.626" rx="13.7528" ry="13.6265" fill="#737575"/>
<path d="M94.1848 170.981C94.1848 189.681 78.7274 204.963 59.506 204.963C40.2845 204.963 24.8271 189.681 24.8271 170.981C24.8271 152.282 40.2845 137 59.506 137C78.7274 137 94.1848 152.282 94.1848 170.981Z" stroke="#737575" stroke-width="8"/>
<ellipse cx="159.58" cy="164.626" rx="13.7528" ry="13.6265" fill="#737575"/>
<path d="M181.16 161.442C181.16 180.948 165.037 196.885 144.994 196.885C124.95 196.885 108.827 180.948 108.827 161.442C108.827 141.936 124.95 126 144.994 126C165.037 126 181.16 141.936 181.16 161.442Z" stroke="#737575" stroke-width="8"/>
<path d="M88.0677 15.4769C88.0677 24.0245 81.0743 30.9537 72.4474 30.9537C63.8206 30.9537 56.8271 24.0245 56.8271 15.4769C56.8271 6.92926 63.8206 -1.01768e-10 72.4474 -2.27305e-10C81.0743 -3.52842e-10 88.0677 6.92926 88.0677 15.4769Z" fill="#F7A506"/>
</svg>
