<svg width="387" height="758" viewBox="0 0 387 758" fill="none" xmlns="http://www.w3.org/2000/svg">
<rect x="63.5876" y="153.358" width="186.067" height="122.966" rx="8" transform="rotate(-3.18421 63.5876 153.358)" fill="white" stroke="#737575" stroke-width="8"/>
<rect x="70.0498" y="354.257" width="186.067" height="122.966" rx="8" transform="rotate(-8.18836 70.0498 354.257)" fill="white" stroke="#737575" stroke-width="8"/>
<path d="M112.171 417.083C110.557 417.325 109.36 417.431 108.579 417.402C107.798 417.373 107.394 417.264 107.365 417.074L108.815 412.162C109.375 412.175 110.517 412.101 112.24 411.941C113.959 411.756 116.184 411.46 118.914 411.052L121.726 410.631C122.557 410.507 123.097 410.305 123.347 410.025C123.596 409.745 123.687 409.379 123.62 408.928L123.566 408.572C123.481 408.003 123.28 407.632 122.963 407.461C122.647 407.29 122.073 407.267 121.242 407.391L113.089 408.61C110.691 408.969 108.881 408.791 107.658 408.076C106.431 407.337 105.667 405.959 105.366 403.941L105.174 402.66C105.018 401.615 105.064 400.626 105.312 399.69C105.585 398.752 106.156 397.951 107.028 397.286C107.896 396.598 109.16 396.13 110.822 395.882L122.642 394.114C124.09 393.897 125.301 393.801 126.276 393.825C127.274 393.846 127.787 393.951 127.815 394.141L127.407 398.716C126.732 398.744 125.463 398.861 123.601 399.067C121.759 399.245 119.426 399.545 116.602 399.968L114.033 400.316C113.297 400.426 112.791 400.611 112.514 400.87C112.234 401.106 112.123 401.499 112.181 402.049L112.218 402.298C112.299 402.844 112.522 403.199 112.887 403.363C113.251 403.527 113.801 403.553 114.537 403.443L122.37 402.272C123.889 402.045 125.205 402.006 126.32 402.154C127.434 402.303 128.338 402.751 129.032 403.496C129.722 404.218 130.186 405.374 130.424 406.964L130.616 408.246C130.882 410.026 130.634 411.532 129.871 412.762C129.132 413.989 127.635 414.771 125.381 415.108L112.171 417.083ZM136.485 413.447L133.356 392.512L140.192 391.489L143.321 412.425L136.485 413.447ZM149.358 411.522L146.655 393.435L145.873 390.64L154.489 389.351L162.618 400.876L167.164 387.456L175.317 386.236L178.447 407.172L171.647 408.189L169.853 396.19L169.461 396.249L168.541 400.318L166.841 406.723L160.361 407.692L156.756 402.08L154.721 398.453L154.365 398.506L156.159 410.505L149.358 411.522ZM184.511 406.265L181.807 388.178L181.025 385.383L197.545 382.912C200.417 382.483 202.65 382.731 204.245 383.657C205.863 384.58 206.853 386.252 207.215 388.673L208.232 395.474C208.601 397.942 208.158 399.853 206.905 401.205C205.647 402.534 203.571 403.414 200.675 403.848L184.511 406.265ZM190.719 400.313L198.872 399.094C200.7 398.821 201.5 397.839 201.271 396.151L200.35 389.991C200.248 389.303 199.959 388.751 199.484 388.337C199.006 387.899 198.245 387.758 197.201 387.914L189.047 389.133L190.719 400.313ZM214.265 401.815L211.135 380.88L233.993 377.461L234.717 382.304L218.802 384.684L219.244 387.639L231.029 385.876L231.768 390.825L219.983 392.588L220.479 395.899L235.824 393.604L238.631 397.771C238.645 397.866 238.339 398.009 237.712 398.199C237.082 398.366 235.983 398.567 234.417 398.801L214.265 401.815Z" fill="#737575"/>
<ellipse cx="132.952" cy="214.626" rx="13.7528" ry="13.6265" fill="#737575"/>
<path d="M153.557 214.981C153.557 233.681 138.099 248.963 118.878 248.963C99.6563 248.963 84.199 233.681 84.199 214.981C84.199 196.282 99.6563 181 118.878 181C138.099 181 153.557 196.282 153.557 214.981Z" stroke="#737575" stroke-width="8"/>
<ellipse cx="218.952" cy="208.626" rx="13.7528" ry="13.6265" fill="#737575"/>
<path d="M240.532 205.442C240.532 224.948 224.409 240.885 204.365 240.885C184.322 240.885 168.199 224.948 168.199 205.442C168.199 185.936 184.322 170 204.365 170C224.409 170 240.532 185.936 240.532 205.442Z" stroke="#737575" stroke-width="8"/>
<circle cx="163.703" cy="305.11" r="27.5" fill="#D05CE2"/>
<path d="M212.493 495.016C212.493 510.204 200.181 522.516 184.993 522.516C169.805 522.516 157.493 510.204 157.493 495.016C157.493 479.829 169.805 467.516 184.993 467.516C200.181 467.516 212.493 479.829 212.493 495.016Z" fill="#5781D1"/>
<path d="M156.917 144.677L146.809 108.839L136.7 72.9999" stroke="#737575" stroke-width="6"/>
<path d="M147.707 530.877C152.261 599.067 129.99 751.062 107.699 751.062C107.699 751.062 62.68 751.062 51.1988 751.062" stroke="#737575" stroke-width="12"/>
<rect x="2.85124" y="3.13626" width="105.064" height="47.2713" rx="9" transform="matrix(0.998914 0.0465978 -0.0485013 0.998823 127.617 521.089)" fill="white" stroke="#737575" stroke-width="6"/>
<path d="M215.879 573.019C212.679 627.832 233.965 749.992 249.699 749.988C249.699 749.988 324.699 750.001 296.699 749.987" stroke="#737575" stroke-width="12"/>
<path d="M251.199 333.44C258.971 325.163 368.698 366.435 363.5 336.5C349 253 341.5 268 376 228" stroke="#737575" stroke-width="12"/>
<path d="M75.2468 359.734C67.8204 351.345 31.7847 444.242 22.1989 473C6.19893 521 164.199 479 108.199 570.5" stroke="#737575" stroke-width="12"/>
<g filter="url(#filter0_d_3513_3)">
<path d="M147.44 59.4769C147.44 68.0245 140.446 74.9537 131.819 74.9537C123.192 74.9537 116.199 68.0245 116.199 59.4769C116.199 50.9293 123.192 44 131.819 44C140.446 44 147.44 50.9293 147.44 59.4769Z" fill="#F7A506"/>
</g>
<rect x="63.5876" y="153.358" width="186.067" height="122.966" rx="8" transform="rotate(-3.18421 63.5876 153.358)" fill="white" stroke="#737575" stroke-width="8"/>
<ellipse cx="132.952" cy="214.626" rx="13.7528" ry="13.6265" fill="#737575"/>
<path d="M153.556 214.981C153.556 233.681 138.099 248.963 118.878 248.963C99.656 248.963 84.1987 233.681 84.1987 214.981C84.1987 196.282 99.656 181 118.878 181C138.099 181 153.556 196.282 153.556 214.981Z" stroke="#737575" stroke-width="8"/>
<ellipse cx="218.952" cy="208.626" rx="13.7528" ry="13.6265" fill="#737575"/>
<path d="M240.532 205.442C240.532 224.948 224.408 240.885 204.365 240.885C184.322 240.885 168.199 224.948 168.199 205.442C168.199 185.936 184.322 170 204.365 170C224.408 170 240.532 185.936 240.532 205.442Z" stroke="#737575" stroke-width="8"/>
<g filter="url(#filter1_d_3513_3)">
<path d="M147.439 59.4769C147.439 68.0245 140.446 74.9537 131.819 74.9537C123.192 74.9537 116.199 68.0245 116.199 59.4769C116.199 50.9293 123.192 44 131.819 44C140.446 44 147.439 50.9293 147.439 59.4769Z" fill="#F7A506"/>
</g>
<path d="M86 361.5C86 370.06 79.0604 377 70.5 377C61.9396 377 55 370.06 55 361.5C55 352.94 61.9396 346 70.5 346C79.0604 346 86 352.94 86 361.5Z" fill="#737575"/>
<path d="M37 484.5C37 493.06 30.0604 500 21.5 500C12.9396 500 6 493.06 6 484.5C6 475.94 12.9396 469 21.5 469C30.0604 469 37 475.94 37 484.5Z" fill="#737575"/>
<path d="M270 330.5C270 339.06 263.06 346 254.5 346C245.94 346 239 339.06 239 330.5C239 321.94 245.94 315 254.5 315C263.06 315 270 321.94 270 330.5Z" fill="#737575"/>
<path d="M375 342.5C375 351.06 368.06 358 359.5 358C350.94 358 344 351.06 344 342.5C344 333.94 350.94 327 359.5 327C368.06 327 375 333.94 375 342.5Z" fill="#737575"/>
<path d="M236 658.5C236 667.06 229.06 674 220.5 674C211.94 674 205 667.06 205 658.5C205 649.94 211.94 643 220.5 643C229.06 643 236 649.94 236 658.5Z" fill="#737575"/>
<path d="M157 658.5C157 667.06 150.06 674 141.5 674C132.94 674 126 667.06 126 658.5C126 649.94 132.94 643 141.5 643C150.06 643 157 649.94 157 658.5Z" fill="#737575"/>
<defs>
<filter id="filter0_d_3513_3" x="73.199" y="0" width="115.241" height="114.954" filterUnits="userSpaceOnUse" color-interpolation-filters="sRGB">
<feFlood flood-opacity="0" result="BackgroundImageFix"/>
<feColorMatrix in="SourceAlpha" type="matrix" values="0 0 0 0 0 0 0 0 0 0 0 0 0 0 0 0 0 0 127 0" result="hardAlpha"/>
<feOffset dx="-1" dy="-2"/>
<feGaussianBlur stdDeviation="21"/>
<feComposite in2="hardAlpha" operator="out"/>
<feColorMatrix type="matrix" values="0 0 0 0 0.954226 0 0 0 0 0.639251 0 0 0 0 0.0278314 0 0 0 1 0"/>
<feBlend mode="normal" in2="BackgroundImageFix" result="effect1_dropShadow_3513_3"/>
<feBlend mode="normal" in="SourceGraphic" in2="effect1_dropShadow_3513_3" result="shape"/>
</filter>
<filter id="filter1_d_3513_3" x="73.1987" y="0" width="115.241" height="114.954" filterUnits="userSpaceOnUse" color-interpolation-filters="sRGB">
<feFlood flood-opacity="0" result="BackgroundImageFix"/>
<feColorMatrix in="SourceAlpha" type="matrix" values="0 0 0 0 0 0 0 0 0 0 0 0 0 0 0 0 0 0 127 0" result="hardAlpha"/>
<feOffset dx="-1" dy="-2"/>
<feGaussianBlur stdDeviation="21"/>
<feComposite in2="hardAlpha" operator="out"/>
<feColorMatrix type="matrix" values="0 0 0 0 0.954226 0 0 0 0 0.639251 0 0 0 0 0.0278314 0 0 0 1 0"/>
<feBlend mode="normal" in2="BackgroundImageFix" result="effect1_dropShadow_3513_3"/>
<feBlend mode="normal" in="SourceGraphic" in2="effect1_dropShadow_3513_3" result="shape"/>
</filter>
</defs>
</svg>
